<svg width="37" height="27" viewBox="0 0 37 27" fill="none" xmlns="http://www.w3.org/2000/svg">
<path d="M4.34082 0.542969H32.5537C34.6512 0.543 36.3516 2.2433 36.3516 4.34082V21.7021C36.3516 23.7997 34.6512 25.5 32.5537 25.5H4.34082C2.24328 25.5 0.542969 23.7997 0.542969 21.7021V4.34082C0.542969 2.24328 2.24328 0.542969 4.34082 0.542969Z" fill="#FCFCFA"/>
<path d="M4.34082 0.542969H32.5537C34.6512 0.543 36.3516 2.2433 36.3516 4.34082V21.7021C36.3516 23.7997 34.6512 25.5 32.5537 25.5H4.34082C2.24328 25.5 0.542969 23.7997 0.542969 21.7021V4.34082C0.542969 2.24328 2.24328 0.542969 4.34082 0.542969Z" stroke="#E5E7EB" stroke-width="1.08512"/>
<path fill-rule="evenodd" clip-rule="evenodd" d="M10.2536 9.05319C9.94391 9.43504 9.44843 9.73622 8.95295 9.6932C8.89101 9.17689 9.13359 8.62832 9.41746 8.28949C9.72713 7.89688 10.2691 7.61722 10.7078 7.5957C10.7594 8.13352 10.5581 8.66059 10.2536 9.05319ZM10.7027 9.79534C10.2662 9.76916 9.8679 9.93213 9.54618 10.0638C9.33915 10.1485 9.16384 10.2202 9.03046 10.2202C8.88078 10.2202 8.69823 10.1446 8.49326 10.0598C8.22469 9.94862 7.91763 9.82151 7.59563 9.82761C6.85758 9.83837 6.17113 10.274 5.79436 10.9678C5.02018 12.3554 5.59307 14.4098 6.34145 15.5392C6.7079 16.0986 7.14661 16.7117 7.72467 16.6902C7.97898 16.6802 8.16191 16.5993 8.35123 16.5156C8.5692 16.4192 8.79562 16.3191 9.14917 16.3191C9.49046 16.3191 9.70698 16.4166 9.91483 16.5102C10.1125 16.5992 10.3022 16.6847 10.584 16.6794C11.1827 16.6687 11.5595 16.1201 11.9259 15.5608C12.3214 14.9604 12.4952 14.3746 12.5215 14.2857L12.5246 14.2754C12.524 14.2747 12.5191 14.2724 12.5105 14.2683C12.3783 14.2052 11.3679 13.7232 11.3582 12.4307C11.3484 11.3458 12.1596 10.7961 12.2873 10.7095C12.2951 10.7043 12.3003 10.7007 12.3027 10.6989C11.7866 9.9029 10.9814 9.81685 10.7027 9.79534ZM14.847 16.6203V8.23569H17.8663C19.425 8.23569 20.514 9.35435 20.514 10.9893C20.514 12.6243 19.4044 13.7537 17.825 13.7537H16.096V16.6203H14.847ZM16.096 9.33281H17.536C18.6199 9.33281 19.2392 9.93517 19.2392 10.9947C19.2392 12.0542 18.6199 12.6619 17.5309 12.6619H16.096V9.33281ZM24.638 15.6146C24.3077 16.2707 23.5799 16.6848 22.7954 16.6848C21.6341 16.6848 20.8238 15.9642 20.8238 14.8778C20.8238 13.8021 21.6083 13.1836 23.0586 13.0922L24.6173 12.9954V12.5329C24.6173 11.8499 24.1889 11.4788 23.4251 11.4788C22.7954 11.4788 22.3361 11.8176 22.2432 12.3339H21.118C21.1541 11.2475 22.1348 10.4569 23.4612 10.4569C24.8909 10.4569 25.8199 11.2367 25.8199 12.4468V16.6203H24.6638V15.6146H24.638ZM23.1308 15.6898C22.465 15.6898 22.0418 15.3564 22.0418 14.8455C22.0418 14.3184 22.4495 14.0118 23.2289 13.9634L24.6172 13.872V14.3453C24.6172 15.1305 23.9772 15.6898 23.1308 15.6898ZM29.6546 16.9484C29.154 18.4166 28.5811 18.9006 27.363 18.9006C27.2701 18.9006 26.9604 18.8899 26.8882 18.8684V17.8627C26.9656 17.8734 27.1566 17.8842 27.2546 17.8842C27.8069 17.8842 28.1166 17.6421 28.3075 17.0129L28.4211 16.6418L26.305 10.5376H27.6108L29.0817 15.4909H29.1075L30.5785 10.5376H31.8481L29.6546 16.9484Z" fill="black"/>
</svg>
