<svg width="64" height="64" viewBox="0 0 64 64" fill="none" xmlns="http://www.w3.org/2000/svg">
<path fill-rule="evenodd" clip-rule="evenodd" d="M11.9043 11.5547C17.0754 6.47184 24.1725 3.33301 31.9987 3.33301C33.8349 3.33301 35.6327 3.50591 37.3759 3.83688C50.6378 6.35476 60.6654 18.004 60.6654 31.9997C60.6654 33.6516 60.5254 35.2725 60.2563 36.8506C57.9504 50.3728 46.1786 60.6663 31.9987 60.6663C16.1665 60.6663 3.33203 47.8318 3.33203 31.9997C3.33203 23.9948 6.61564 16.7533 11.9043 11.5547ZM17.1427 12.3065C18.3024 13.0821 19.3035 14.1277 20.3979 15.284C23.9535 19.041 27.0055 18.9409 28.6737 18.0596C29.3374 17.7089 29.5587 17.3913 29.6759 17.1549C29.8354 16.8331 29.8974 16.4922 30.0266 15.7821C30.0328 15.7482 30.0391 15.7133 30.0456 15.6776C30.1708 14.9909 30.3677 13.9596 31.0211 12.9728C31.7051 11.9398 32.7447 11.1526 34.2026 10.5749C35.0752 10.2292 35.4747 9.67999 35.6304 9.10663C35.7457 8.68207 35.7469 8.15812 35.5882 7.59202C34.4173 7.42145 33.2189 7.33301 31.9987 7.33301C26.4197 7.33301 21.2755 9.18338 17.1427 12.3065ZM39.7126 8.56258C39.7046 9.0974 39.6328 9.63155 39.4906 10.1549C38.9934 11.986 37.6803 13.4995 35.676 14.2937C34.7874 14.6458 34.4871 14.9835 34.3563 15.1812C34.1949 15.4249 34.102 15.7297 33.9808 16.3949C33.9703 16.4523 33.9594 16.5142 33.9479 16.5801C33.8447 17.1678 33.6862 18.0708 33.2599 18.9311C32.7359 19.9884 31.8777 20.8907 30.5422 21.5963C26.8791 23.5316 21.9341 22.7265 17.4927 18.0335C15.8177 16.2638 14.9595 15.4843 13.9796 15.1544C9.85427 19.5651 7.33203 25.4862 7.33203 31.9997C7.33203 44.3289 16.3777 54.5455 28.1945 56.3748C28.1571 56.1616 28.1324 55.9446 28.1205 55.7239C28.0318 54.0748 28.6858 52.555 29.4 51.3269C30.4413 49.5362 30.7578 48.9573 30.9214 48.3006C31.0952 47.6034 31.1097 46.7658 31.1097 44.3847C31.1097 43.072 31.3013 41.7489 31.8891 40.5662C32.5003 39.3362 33.4784 38.3845 34.8104 37.7689C37.3024 36.6173 40.922 36.6971 45.7243 37.6576C46.2759 37.7679 46.8558 37.6845 47.6193 37.3705C48.2536 37.1096 48.8598 36.7624 49.6063 36.3348C49.8393 36.2014 50.0859 36.0601 50.3514 35.9111C51.9645 35.0061 54.0346 33.9687 56.5745 34.1331C56.6346 33.4303 56.6654 32.7188 56.6654 31.9997C56.6654 21.0719 49.5577 11.8007 39.7126 8.56258ZM55.9008 38.1192C54.7275 38.156 53.622 38.6627 52.3086 39.3996C52.1276 39.5011 51.9362 39.6111 51.7367 39.7257C50.9519 40.1764 50.0414 40.6994 49.1408 41.0699C47.9425 41.5627 46.5279 41.8975 44.9398 41.5799C40.2182 40.6356 37.7267 40.8277 36.4884 41.3999C35.9553 41.6463 35.6635 41.9593 35.4711 42.3463C35.2553 42.7806 35.1097 43.4267 35.1097 44.3847C35.1097 44.4751 35.1097 44.5643 35.1097 44.6522C35.1103 46.6648 35.1107 48.0322 34.8027 49.2679C34.4853 50.5417 33.8539 51.6265 32.976 53.1346C32.9371 53.2015 32.8977 53.2691 32.8579 53.3377C32.2837 54.325 32.0885 55.0208 32.1148 55.5091C32.1299 55.79 32.2244 56.1745 32.7126 56.6562C43.9065 56.338 53.2362 48.5606 55.9008 38.1192Z" fill="url(#paint0_linear_783_122)"/>
<defs>
<linearGradient id="paint0_linear_783_122" x1="31.9987" y1="3.33301" x2="31.9987" y2="60.6663" gradientUnits="userSpaceOnUse">
<stop stop-color="#8FECB5"/>
<stop offset="0.5" stop-color="#5DD68D"/>
<stop offset="1" stop-color="#33AD6C"/>
</linearGradient>
</defs>
</svg>
