<svg width="37" height="27" viewBox="0 0 37 27" fill="none" xmlns="http://www.w3.org/2000/svg">
<path d="M4.34082 0.542969H32.5537C34.6512 0.543 36.3516 2.2433 36.3516 4.34082V21.7021C36.3516 23.7997 34.6512 25.5 32.5537 25.5H4.34082C2.24328 25.5 0.542969 23.7997 0.542969 21.7021V4.34082C0.542969 2.24328 2.24328 0.542969 4.34082 0.542969Z" fill="#FCFCFA"/>
<path d="M4.34082 0.542969H32.5537C34.6512 0.543 36.3516 2.2433 36.3516 4.34082V21.7021C36.3516 23.7997 34.6512 25.5 32.5537 25.5H4.34082C2.24328 25.5 0.542969 23.7997 0.542969 21.7021V4.34082C0.542969 2.24328 2.24328 0.542969 4.34082 0.542969Z" stroke="#E5E7EB" stroke-width="1.08512"/>
<path d="M23.415 5.45898C27.4786 5.45906 30.7725 8.71426 30.7725 12.7295C30.7723 16.7446 27.4785 19.9999 23.415 20C21.5932 20 19.9266 19.3444 18.6416 18.2607C17.3567 19.3441 15.6906 20 13.8691 20C9.80577 19.9998 6.51182 16.7445 6.51172 12.7295C6.51172 8.71436 9.80571 5.45922 13.8691 5.45898C15.6907 5.45898 17.3567 6.11483 18.6416 7.19824C19.9267 6.11445 21.5931 5.45898 23.415 5.45898Z" fill="#ED0006"/>
<path d="M23.415 5.45898C27.4787 5.45898 30.7734 8.71421 30.7734 12.7295C30.7733 16.7447 27.4786 20 23.415 20C21.5934 20 19.9275 19.3442 18.6426 18.2607C20.224 16.9273 21.2275 14.9447 21.2275 12.7295C21.2275 10.5141 20.2242 8.53077 18.6426 7.19727C19.9275 6.11395 21.5936 5.45901 23.415 5.45898Z" fill="#F9A000"/>
<path d="M18.6416 7.19727C20.2231 8.53071 21.2265 10.5133 21.2266 12.7285C21.2266 14.9437 20.223 16.9263 18.6416 18.2598C17.0603 16.9263 16.0566 14.9437 16.0566 12.7285C16.0567 10.5134 17.0602 8.53071 18.6416 7.19727Z" fill="#FF5E00"/>
</svg>
