<svg width="37" height="27" viewBox="0 0 37 27" fill="none" xmlns="http://www.w3.org/2000/svg">
<path d="M4.34082 0.542969H32.5537C34.6512 0.543 36.3516 2.2433 36.3516 4.34082V21.7021C36.3516 23.7997 34.6512 25.5 32.5537 25.5H4.34082C2.24328 25.5 0.542969 23.7997 0.542969 21.7021V4.34082C0.542969 2.24328 2.24328 0.542969 4.34082 0.542969Z" fill="#FCFCFA"/>
<path d="M4.34082 0.542969H32.5537C34.6512 0.543 36.3516 2.2433 36.3516 4.34082V21.7021C36.3516 23.7997 34.6512 25.5 32.5537 25.5H4.34082C2.24328 25.5 0.542969 23.7997 0.542969 21.7021V4.34082C0.542969 2.24328 2.24328 0.542969 4.34082 0.542969Z" stroke="#E5E7EB" stroke-width="1.08512"/>
<path fill-rule="evenodd" clip-rule="evenodd" d="M11.6657 17.2076H9.43066L7.75463 10.6254C7.67508 10.3227 7.50617 10.055 7.25771 9.92882C6.63764 9.61178 5.95437 9.35946 5.20898 9.23221V8.97879H8.80951C9.30643 8.97879 9.67912 9.35946 9.74124 9.80157L10.6109 14.5495L12.8448 8.97879H15.0178L11.6657 17.2076ZM16.26 17.2076H14.1492L15.8873 8.97879H17.9982L16.26 17.2076ZM20.7293 11.2585C20.7914 10.8153 21.1641 10.5619 21.5989 10.5619C22.2822 10.4982 23.0265 10.6255 23.6476 10.9414L24.0203 9.16973C23.3992 8.91632 22.7159 8.78906 22.0958 8.78906C20.0471 8.78906 18.5563 9.92888 18.5563 11.5108C18.5563 12.7143 19.6123 13.3461 20.3577 13.7268C21.1641 14.1064 21.4747 14.3598 21.4126 14.7394C21.4126 15.3087 20.7914 15.5622 20.1713 15.5622C19.426 15.5622 18.6806 15.3724 17.9984 15.0553L17.6257 16.8281C18.3711 17.1441 19.1775 17.2713 19.9229 17.2713C22.2201 17.3339 23.6476 16.1951 23.6476 14.486C23.6476 12.3336 20.7293 12.2074 20.7293 11.2585ZM31.0348 17.2076L29.3588 8.97879H27.5585C27.1858 8.97879 26.8132 9.23221 26.6889 9.61178L23.5853 17.2076H25.7583L26.192 16.0053H28.8619L29.1103 17.2076H31.0348ZM27.8692 11.1949L28.4892 14.2962H26.7511L27.8692 11.1949Z" fill="#172B85"/>
</svg>
