<svg width="64" height="64" viewBox="0 0 64 64" fill="none" xmlns="http://www.w3.org/2000/svg">
<path fill-rule="evenodd" clip-rule="evenodd" d="M15.0586 3.33301C16.4595 3.33289 17.7052 3.33355 18.7109 3.46876C19.8041 3.61573 20.9084 3.95428 21.8106 4.85645C22.7126 5.75859 23.0513 6.86294 23.1982 7.95606C23.3125 8.80599 23.3284 9.82729 23.3311 10.9688L40.6768 23.3584C40.6895 22.5934 40.72 21.8973 40.8018 21.2891C40.9487 20.1959 41.2873 19.0916 42.1895 18.1895C43.0916 17.2873 44.1959 16.9487 45.2891 16.8018C46.2948 16.6666 47.5406 16.6669 48.9414 16.667H49.7256C51.1264 16.6669 52.3722 16.6666 53.3779 16.8018C54.4709 16.9487 55.5745 17.2876 56.4766 18.1895C57.3787 19.0916 57.7183 20.1959 57.8652 21.2891C58.0004 22.2948 58.0001 23.5406 58 24.9414V25.7256C58.0001 27.1264 58.0005 28.3722 57.8652 29.3779C57.7183 30.4711 57.3787 31.5744 56.4766 32.4766C55.5744 33.3787 54.4711 33.7183 53.3779 33.8652C52.3722 34.0005 51.1264 34.0001 49.7256 34H48.9414C47.5406 34.0001 46.2948 34.0004 45.2891 33.8652C44.1959 33.7183 43.0916 33.3787 42.1895 32.4766C41.2876 31.5745 40.9487 30.4709 40.8018 29.3779C40.7222 28.7863 40.6912 28.1115 40.6777 27.3711L27.2705 38.5449L40.7744 48.1895C40.7832 48.1103 40.7915 48.0324 40.8018 47.9561C40.9487 46.8629 41.2874 45.7586 42.1895 44.8564C43.0916 43.9543 44.1959 43.6157 45.2891 43.4688C46.2948 43.3335 47.5405 43.3329 48.9414 43.333H49.7256C51.1264 43.3329 52.3722 43.3335 53.3779 43.4688C54.471 43.6157 55.5745 43.9545 56.4766 44.8564C57.3787 45.7586 57.7183 46.8629 57.8652 47.9561C58.0004 48.9618 58.0001 50.2077 58 51.6084V52.3916C58.0001 53.7925 58.0005 55.0392 57.8652 56.0449C57.7182 57.138 57.3786 58.2415 56.4766 59.1436C55.5745 60.0455 54.471 60.3843 53.3779 60.5313C52.3722 60.6665 51.1264 60.6671 49.7256 60.667H48.9414C47.5405 60.6671 46.2948 60.6665 45.2891 60.5313C44.1959 60.3843 43.0916 60.0457 42.1895 59.1436C41.2876 58.2416 40.9488 57.1379 40.8018 56.0449C40.6875 55.1947 40.6706 54.1723 40.668 53.0303L23.3223 40.6397C23.3096 41.4055 23.2801 42.1022 23.1982 42.7109C23.0513 43.8041 22.7127 44.9084 21.8106 45.8106C20.9084 46.7127 19.8041 47.0513 18.7109 47.1982C17.7052 47.3334 16.4595 47.3331 15.0586 47.333H14.2744C12.8736 47.3331 11.6278 47.3335 10.6221 47.1982C9.52908 47.0513 8.4255 46.7124 7.52345 45.8106C6.62128 44.9084 6.28175 43.8041 6.13477 42.7109C5.99958 41.7052 5.99989 40.4594 6.00001 39.0586V38.2744C5.99989 36.8736 5.99956 35.6278 6.13477 34.6221C6.28176 33.5289 6.62132 32.4256 7.52345 31.5234C8.42557 30.6213 9.52894 30.2818 10.6221 30.1348C11.6278 29.9996 12.8736 29.9999 14.2744 30H15.0586C16.4594 29.9999 17.7052 29.9996 18.7109 30.1348C19.8041 30.2817 20.9084 30.6213 21.8106 31.5234C22.7124 32.4255 23.0513 33.5291 23.1982 34.6221C23.2778 35.2134 23.3079 35.8879 23.3213 36.6279L36.7295 25.4551L23.2246 15.8096C23.2158 15.8892 23.2086 15.9681 23.1982 16.0449C23.0513 17.1379 22.7125 18.2416 21.8106 19.1436C20.9084 20.0457 19.8041 20.3843 18.7109 20.5313C17.7052 20.6665 16.4595 20.6671 15.0586 20.667H14.2744C12.8736 20.6671 11.6278 20.6665 10.6221 20.5313C9.52903 20.3843 8.42552 20.0455 7.52345 19.1436C6.6214 18.2415 6.28178 17.138 6.13477 16.0449C5.99955 15.0392 5.99989 13.7925 6.00001 12.3916V11.6084C5.99989 10.2077 5.99962 8.96175 6.13477 7.95606C6.28175 6.86288 6.62128 5.75862 7.52345 4.85645C8.42552 3.95447 9.52904 3.61574 10.6221 3.46876C11.6278 3.33354 12.8736 3.33289 14.2744 3.33301H15.0586ZM49.0664 47.333C47.5018 47.333 46.5294 47.3376 45.8223 47.4326C45.186 47.5182 45.0584 47.6445 45.0205 47.6826L45.0166 47.6865C44.9789 47.724 44.8514 47.8502 44.7656 48.4883C44.6706 49.1954 44.667 50.1684 44.667 51.7334V52.2666C44.667 53.8316 44.6706 54.8046 44.7656 55.5117C44.8514 56.1498 44.9789 56.276 45.0166 56.3135L45.0205 56.3174C45.0584 56.3555 45.1859 56.4818 45.8223 56.5674C46.5294 56.6624 47.5018 56.667 49.0664 56.667H49.5996C51.1646 56.667 52.1376 56.6625 52.8447 56.5674C53.4819 56.4817 53.6088 56.3553 53.6465 56.3174L53.6504 56.3135C53.6881 56.276 53.8146 56.1497 53.9004 55.5117C53.9955 54.8046 54 53.8316 54 52.2666V51.7334C54 50.1684 53.9955 49.1954 53.9004 48.4883C53.8146 47.8503 53.6881 47.724 53.6504 47.6865L53.6465 47.6826C53.6087 47.6447 53.4819 47.5183 52.8447 47.4326C52.1376 47.3376 51.1646 47.333 49.5996 47.333H49.0664ZM14.4004 34C12.8354 34 11.8624 34.0045 11.1553 34.0996C10.5172 34.1854 10.3911 34.3119 10.3535 34.3496L10.3496 34.3535C10.3119 34.3911 10.1854 34.5172 10.0996 35.1553C10.0045 35.8624 10 36.8354 10 38.4004V38.9336C10 40.4982 10.0046 41.4706 10.0996 42.1777C10.1853 42.8149 10.3117 42.9417 10.3496 42.9795L10.3535 42.9834C10.391 43.0211 10.517 43.1486 11.1553 43.2344C11.8624 43.3294 12.8354 43.333 14.4004 43.333H14.9336C16.4982 43.333 17.4707 43.3294 18.1777 43.2344C18.8158 43.1486 18.942 43.0211 18.9795 42.9834L18.9834 42.9795C19.0211 42.942 19.1486 42.8159 19.2344 42.1777C19.3294 41.4706 19.333 40.4982 19.333 38.9336V38.4004C19.333 36.8354 19.3294 35.8624 19.2344 35.1553C19.1486 34.517 19.0211 34.391 18.9834 34.3535L18.9795 34.3496C18.9418 34.3117 18.8149 34.1853 18.1777 34.0996C17.4706 34.0046 16.4982 34 14.9336 34H14.4004ZM49.0664 20.667C47.5018 20.667 46.5294 20.6706 45.8223 20.7656C45.1842 20.8514 45.058 20.9789 45.0205 21.0166L45.0166 21.0205C44.9789 21.058 44.8514 21.1842 44.7656 21.8223C44.6706 22.5294 44.667 23.5018 44.667 25.0664V25.5996C44.667 27.1646 44.6706 28.1376 44.7656 28.8447C44.8514 29.483 44.9789 29.609 45.0166 29.6465L45.0205 29.6504C45.0582 29.6883 45.185 29.8147 45.8223 29.9004C46.5294 29.9954 47.5018 30 49.0664 30H49.5996C51.1646 30 52.1376 29.9955 52.8447 29.9004C53.4828 29.8146 53.609 29.6881 53.6465 29.6504L53.6504 29.6465C53.6881 29.609 53.8146 29.4828 53.9004 28.8447C53.9955 28.1376 54 27.1646 54 25.5996V25.0664C54 23.5018 53.9954 22.5294 53.9004 21.8223C53.8147 21.185 53.6883 21.0582 53.6504 21.0205L53.6465 21.0166C53.609 20.9789 53.483 20.8514 52.8447 20.7656C52.1376 20.6706 51.1646 20.667 49.5996 20.667H49.0664ZM14.4004 7.33301C12.8354 7.33301 11.8624 7.33755 11.1553 7.43262C10.5181 7.51829 10.3913 7.6447 10.3535 7.68262L10.3496 7.68653C10.3119 7.72402 10.1854 7.8503 10.0996 8.48829C10.0045 9.19545 10 10.1684 10 11.7334V12.2666C10 13.8316 10.0045 14.8046 10.0996 15.5117C10.1854 16.1497 10.3119 16.276 10.3496 16.3135L10.3535 16.3174C10.3912 16.3553 10.518 16.4817 11.1553 16.5674C11.8624 16.6625 12.8354 16.667 14.4004 16.667H14.9336C16.4982 16.667 17.4707 16.6624 18.1777 16.5674C18.814 16.4818 18.9416 16.3555 18.9795 16.3174L18.9834 16.3135C19.0211 16.276 19.1486 16.1498 19.2344 15.5117C19.3295 14.8046 19.333 13.8316 19.333 12.2666V11.7334C19.333 10.1684 19.3295 9.19545 19.2344 8.48829C19.1486 7.85023 19.0211 7.72402 18.9834 7.68653L18.9795 7.68262C18.9416 7.64448 18.814 7.51816 18.1777 7.43262C17.4707 7.3376 16.4982 7.33301 14.9336 7.33301H14.4004Z" fill="url(#paint0_linear_783_2100)"/>
<defs>
<linearGradient id="paint0_linear_783_2100" x1="32" y1="3.33301" x2="32" y2="60.667" gradientUnits="userSpaceOnUse">
<stop stop-color="#8FECB5"/>
<stop offset="0.5" stop-color="#5DD68D"/>
<stop offset="1" stop-color="#33AD6C"/>
</linearGradient>
</defs>
</svg>
